<?xml version="1.0" encoding="UTF-8"?><svg id="Layer_1" xmlns="http://www.w3.org/2000/svg" viewBox="0 0 455.53 342.52"><defs><style>.cls-1{fill:#000;}.cls-1,.cls-2{stroke-width:0px;}.cls-2{fill:#0f766e;}</style></defs><path class="cls-2" d="M229.43,79.68c72.64.15,132.31,59.69,132.1,131.82-.21,72.16-60.17,131.27-132.91,131.02-73.3-.25-132.26-59.58-131.95-132.76.31-71.53,60.23-130.23,132.76-130.08ZM256.79,218.36s-.03,0-.05,0c0-12.43.44-24.87-.09-37.28-1.08-24.99-19.56-42.88-45.25-44.44-27.13-1.65-49.47,13.47-51.7,38.66-2.39,27.07-1.15,54.46-1.39,81.7-.01,1.74.73,3.57,1.46,5.21,3.33,7.55,12.08,10.95,21.78,8.74,7.91-1.8,6.87-8.15,7.04-13.78.19-6.06-.09-12.13.15-18.18.49-12.78,8.25-21.19,19.11-20.95,10.82.24,18.43,8.83,18.77,21.49.2,7.57-.42,15.21.36,22.71.31,2.97,2.9,7.47,5.32,8.14,11.22,3.08,24.78-.3,24.53-16.55-.18-11.82-.04-23.64-.04-35.46ZM309.64,244.34c-.07,0-.14,0-.2-.01,0-1.82.05-3.63,0-5.45-.43-13.04-8.82-21.93-20.53-21.79-11.37.14-19.48,8.81-19.91,21.47-.16,4.53-.26,9.1.07,13.61.78,10.49,8.55,18.26,18.56,18.93,10.27.68,18.95-5.67,21.18-15.94.76-3.5.58-7.21.84-10.82ZM289.41,203.3c10.99-.13,20.31-9.59,20-20.32-.3-10.43-9.44-19.24-20.07-19.34-11.08-.1-20.44,9.01-20.39,19.86.05,10.88,9.4,19.93,20.46,19.8Z"/><path class="cls-2" d="M188.92,183.79c-.14-10.38,7.57-18.51,17.85-18.82,10.62-.32,19.53,7.94,19.67,18.23.14,10.12-8.95,19.24-19.08,19.15-10-.09-18.3-8.45-18.44-18.56Z"/><path class="cls-1" d="M0,109.63h86.78v46.94h-33.1v184.08H0V109.63Z"/><path class="cls-1" d="M0,24.77C5.21,12.5,12.67,2.94,27,.63c18.17-2.92,34.79,7.07,38.68,23.7,4.27,18.24-4.63,34.82-21.4,39.85-18.73,5.62-36.17-2.62-42.71-20.15C1.12,42.82.53,41.67,0,40.49c0-5.24,0-10.48,0-15.72Z"/><path class="cls-1" d="M454.98,339.72h-52.64v-182.9h-33.78v-46.58h86.42v229.48Z"/><path class="cls-1" d="M421.94,65.71c-19.22,0-33-13.29-33.22-32.06C388.5,14.26,402.93-.21,422.27,0c19.27.22,33.18,14.1,33.26,33.2.08,18.97-13.91,32.5-33.59,32.51Z"/></svg>
